<svg xmlns="http://www.w3.org/2000/svg" xmlns:xlink="http://www.w3.org/1999/xlink" viewBox="0 0 180 40" width="180" height="40" class="lottie-animation" preserveAspectRatio="xMidYMid meet"><defs><clipPath id="__lottie_element_33"><rect width="180" height="40" x="0" y="0"></rect></clipPath><g id="__lottie_element_40"><g transform="matrix(1,0,0,1,90,20)" opacity="1" style="display: block;"><g opacity="1" transform="matrix(1,0,0,1,10.239999771118164,0.1599999964237213)"><path fill="rgb(45,255,0)" fill-opacity="1" d=" M72.73999786376953,-13.15999984741211 C72.73999786376953,-13.15999984741211 72.73999786376953,13.15999984741211 72.73999786376953,13.15999984741211 C72.73999786376953,13.15999984741211 -72.73999786376953,13.15999984741211 -72.73999786376953,13.15999984741211 C-72.73999786376953,13.15999984741211 -72.73999786376953,-13.15999984741211 -72.73999786376953,-13.15999984741211 C-72.73999786376953,-13.15999984741211 72.73999786376953,-13.15999984741211 72.73999786376953,-13.15999984741211z"></path></g></g></g><mask id="__lottie_element_40_1" mask-type="alpha"><use xlink:href="#__lottie_element_40"></use></mask></defs><g clip-path="url(#__lottie_element_33)"><g mask="url(#__lottie_element_40_1)" style="display: block;"><g transform="matrix(1,0,0,1,9.525001525878906,7.944000244140625)" opacity="1"><g opacity="1" transform="matrix(1,0,0,1,111.52799987792969,14.605999946594238)"><path fill="rgb(62,54,46)" fill-opacity="1" d=" M0.0010000000474974513,-9.642999649047852 C-5.264999866485596,-9.642999649047852 -9.53600025177002,-5.326000213623047 -9.53600025177002,-0.0010000000474974513 C-9.53600025177002,5.324999809265137 -5.264999866485596,9.642999649047852 0.0010000000474974513,9.642999649047852 C5.265999794006348,9.642999649047852 9.53600025177002,5.324999809265137 9.53600025177002,-0.0010000000474974513 C9.53600025177002,-5.326000213623047 5.265999794006348,-9.642999649047852 0.0010000000474974513,-9.642999649047852z M0.0010000000474974513,6.599999904632568 C-3.5980000495910645,6.599999904632568 -6.5269999504089355,3.6389999389648438 -6.5269999504089355,-0.0010000000474974513 C-6.5269999504089355,-3.640000104904175 -3.5980000495910645,-6.599999904632568 0.0010000000474974513,-6.599999904632568 C3.5989999771118164,-6.599999904632568 6.5269999504089355,-3.640000104904175 6.5269999504089355,-0.0010000000474974513 C6.5269999504089355,3.6389999389648438 3.5989999771118164,6.599999904632568 0.0010000000474974513,6.599999904632568z"></path></g><g opacity="1" transform="matrix(1,0,0,1,132.07699584960938,14.605999946594238)"><path fill="rgb(62,54,46)" fill-opacity="1" d=" M0,-9.642999649047852 C-5.265999794006348,-9.642999649047852 -9.53499984741211,-5.326000213623047 -9.53499984741211,-0.0010000000474974513 C-9.53499984741211,5.324999809265137 -5.265999794006348,9.642999649047852 0,9.642999649047852 C5.265999794006348,9.642999649047852 9.53600025177002,5.324999809265137 9.53600025177002,-0.0010000000474974513 C9.53600025177002,-5.326000213623047 5.265999794006348,-9.642999649047852 0,-9.642999649047852z M0,6.599999904632568 C-3.5989999771118164,6.599999904632568 -6.526000022888184,3.6389999389648438 -6.526000022888184,-0.0010000000474974513 C-6.526000022888184,-3.640000104904175 -3.5989999771118164,-6.599999904632568 0,-6.599999904632568 C3.5989999771118164,-6.599999904632568 6.5269999504089355,-3.640000104904175 6.5269999504089355,-0.0010000000474974513 C6.5269999504089355,3.6389999389648438 3.5989999771118164,6.599999904632568 0,6.599999904632568z"></path></g><g opacity="1" transform="matrix(1,0,0,1,65.21199798583984,14.605999946594238)"><path fill="rgb(62,54,46)" fill-opacity="1" d=" M0,-9.642999649047852 C-5.265999794006348,-9.642999649047852 -9.53600025177002,-5.326000213623047 -9.53600025177002,-0.0010000000474974513 C-9.53600025177002,5.324999809265137 -5.265999794006348,9.642999649047852 0,9.642999649047852 C5.265999794006348,9.642999649047852 9.53600025177002,5.324999809265137 9.53600025177002,-0.0010000000474974513 C9.53600025177002,-5.326000213623047 5.265999794006348,-9.642999649047852 0,-9.642999649047852z M0,6.599999904632568 C-3.5989999771118164,6.599999904632568 -6.5269999504089355,3.6389999389648438 -6.5269999504089355,-0.0010000000474974513 C-6.5269999504089355,-3.640000104904175 -3.5989999771118164,-6.599999904632568 0,-6.599999904632568 C3.5989999771118164,-6.599999904632568 6.526000022888184,-3.640000104904175 6.526000022888184,-0.0010000000474974513 C6.526000022888184,3.6389999389648438 3.5989999771118164,6.599999904632568 0,6.599999904632568z"></path></g><g opacity="1" transform="matrix(1,0,0,1,65.21199798583984,1.7710000276565552)"><path fill="rgb(62,54,46)" fill-opacity="1" d=" M6.072000026702881,1.5210000276565552 C6.072000026702881,1.5210000276565552 -6.072000026702881,1.5210000276565552 -6.072000026702881,1.5210000276565552 C-6.072000026702881,1.5210000276565552 -6.072000026702881,-1.5210000276565552 -6.072000026702881,-1.5210000276565552 C-6.072000026702881,-1.5210000276565552 6.072000026702881,-1.5210000276565552 6.072000026702881,-1.5210000276565552 C6.072000026702881,-1.5210000276565552 6.072000026702881,1.5210000276565552 6.072000026702881,1.5210000276565552z"></path></g><g opacity="1" transform="matrix(1,0,0,1,27.920000076293945,14.605999946594238)"><path fill="rgb(62,54,46)" fill-opacity="1" d=" M0,-9.642999649047852 C-5.265999794006348,-9.642999649047852 -9.53600025177002,-5.326000213623047 -9.53600025177002,-0.0010000000474974513 C-9.53600025177002,5.324999809265137 -5.265999794006348,9.642999649047852 0,9.642999649047852 C5.265999794006348,9.642999649047852 9.53600025177002,5.324999809265137 9.53600025177002,-0.0010000000474974513 C9.53600025177002,-5.326000213623047 5.265999794006348,-9.642999649047852 0,-9.642999649047852z M0,6.599999904632568 C-3.5989999771118164,6.599999904632568 -6.526000022888184,3.6389999389648438 -6.526000022888184,-0.0010000000474974513 C-6.526000022888184,-3.640000104904175 -3.5989999771118164,-6.599999904632568 0,-6.599999904632568 C3.5989999771118164,-6.599999904632568 6.5269999504089355,-3.640000104904175 6.5269999504089355,-0.0010000000474974513 C6.5269999504089355,3.6389999389648438 3.5989999771118164,6.599999904632568 0,6.599999904632568z"></path></g><g opacity="1" transform="matrix(1,0,0,1,152.17100524902344,14.604999542236328)"><path fill="rgb(62,54,46)" fill-opacity="1" d=" M3.806999921798706,-9.130000114440918 C3.806999921798706,-9.130000114440918 3.806999921798706,-9.128000259399414 3.806999921798706,-9.128000259399414 C3.806999921798706,-9.128000259399414 -9.081000328063965,-9.128000259399414 -9.081000328063965,-9.128000259399414 C-9.081000328063965,-9.128000259399414 -9.081000328063965,9.130000114440918 -9.081000328063965,9.130000114440918 C-9.081000328063965,9.130000114440918 3.806999921798706,9.130000114440918 3.806999921798706,9.130000114440918 C3.806999921798706,9.130000114440918 9.081000328063965,3.7960000038146973 9.081000328063965,3.7960000038146973 C9.081000328063965,3.7960000038146973 9.081000328063965,-3.7960000038146973 9.081000328063965,-3.7960000038146973 C9.081000328063965,-3.7960000038146973 3.806999921798706,-9.130000114440918 3.806999921798706,-9.130000114440918z M6.072999954223633,2.61899995803833 C6.072999954223633,2.61899995803833 2.6440000534057617,6.086999893188477 2.6440000534057617,6.086999893188477 C2.6440000534057617,6.086999893188477 -6.072000026702881,6.086999893188477 -6.072000026702881,6.086999893188477 C-6.072000026702881,6.086999893188477 -6.072000026702881,-6.085000038146973 -6.072000026702881,-6.085000038146973 C-6.072000026702881,-6.085000038146973 2.6440000534057617,-6.085000038146973 2.6440000534057617,-6.085000038146973 C2.6440000534057617,-6.085000038146973 6.072999954223633,-2.618000030517578 6.072999954223633,-2.618000030517578 C6.072999954223633,-2.618000030517578 6.072999954223633,2.61899995803833 6.072999954223633,2.61899995803833z"></path></g><g opacity="1" transform="matrix(1,0,0,1,46.564998626708984,14.605999946594238)"><path fill="rgb(62,54,46)" fill-opacity="1" d=" M-8.145999908447266,-9.130000114440918 C-8.145999908447266,-9.130000114440918 8.145999908447266,-9.130000114440918 8.145999908447266,-9.130000114440918 C8.145999908447266,-9.130000114440918 8.145999908447266,-6.086999893188477 8.145999908447266,-6.086999893188477 C8.145999908447266,-6.086999893188477 -3.8910000324249268,6.086999893188477 -3.8910000324249268,6.086999893188477 C-3.8910000324249268,6.086999893188477 8.145999908447266,6.086999893188477 8.145999908447266,6.086999893188477 C8.145999908447266,6.086999893188477 8.145999908447266,9.130000114440918 8.145999908447266,9.130000114440918 C8.145999908447266,9.130000114440918 -8.145999908447266,9.130000114440918 -8.145999908447266,9.130000114440918 C-8.145999908447266,9.130000114440918 -8.145999908447266,6.086999893188477 -8.145999908447266,6.086999893188477 C-8.145999908447266,6.086999893188477 3.8910000324249268,-6.086999893188477 3.8910000324249268,-6.086999893188477 C3.8910000324249268,-6.086999893188477 -8.145999908447266,-6.086999893188477 -8.145999908447266,-6.086999893188477 C-8.145999908447266,-6.086999893188477 -8.145999908447266,-9.130000114440918 -8.145999908447266,-9.130000114440918z"></path></g><g opacity="1" transform="matrix(1,0,0,1,88.54199981689453,14.605999946594238)"><path fill="rgb(62,54,46)" fill-opacity="1" d=" M13.008000373840332,-6.086999893188477 C13.008000373840332,-6.086999893188477 7.705999851226807,9.130000114440918 7.705999851226807,9.130000114440918 C7.705999851226807,9.130000114440918 3.9839999675750732,9.130000114440918 3.9839999675750732,9.130000114440918 C3.9839999675750732,9.130000114440918 -0.00800000037997961,-1.7230000495910645 -0.00800000037997961,-1.7230000495910645 C-0.00800000037997961,-1.7230000495910645 -3.999000072479248,9.130000114440918 -3.999000072479248,9.130000114440918 C-3.999000072479248,9.130000114440918 -7.71999979019165,9.130000114440918 -7.71999979019165,9.130000114440918 C-7.71999979019165,9.130000114440918 -13.012999534606934,-6.086999893188477 -13.012999534606934,-6.086999893188477 C-13.012999534606934,-6.086999893188477 -14.069999694824219,-9.130000114440918 -14.069999694824219,-9.130000114440918 C-14.069999694824219,-9.130000114440918 -10.880999565124512,-9.130000114440918 -10.880999565124512,-9.130000114440918 C-10.880999565124512,-9.130000114440918 -9.821999549865723,-6.086999893188477 -9.821999549865723,-6.086999893188477 C-9.821999549865723,-6.086999893188477 -5.831999778747559,5.388999938964844 -5.831999778747559,5.388999938964844 C-5.831999778747559,5.388999938964844 -1.6100000143051147,-6.086999893188477 -1.6100000143051147,-6.086999893188477 C-1.6100000143051147,-6.086999893188477 -1.6100000143051147,-9.130000114440918 -1.6100000143051147,-9.130000114440918 C-1.6100000143051147,-9.130000114440918 1.6009999513626099,-9.130000114440918 1.6009999513626099,-9.130000114440918 C1.6009999513626099,-9.130000114440918 1.6009999513626099,-6.086999893188477 1.6009999513626099,-6.086999893188477 C1.6009999513626099,-6.086999893188477 5.822000026702881,5.388999938964844 5.822000026702881,5.388999938964844 C5.822000026702881,5.388999938964844 9.821000099182129,-6.086999893188477 9.821000099182129,-6.086999893188477 C9.821000099182129,-6.086999893188477 10.880000114440918,-9.130000114440918 10.880000114440918,-9.130000114440918 C10.880000114440918,-9.130000114440918 14.069999694824219,-9.130000114440918 14.069999694824219,-9.130000114440918 C14.069999694824219,-9.130000114440918 13.01200008392334,-6.086999893188477 13.01200008392334,-6.086999893188477 C13.01200008392334,-6.086999893188477 13.008000373840332,-6.086999893188477 13.008000373840332,-6.086999893188477z"></path></g></g></g><g transform="matrix(1,0,0,1,9.524999618530273,7.944999694824219)" opacity="1" style="display: block;"><g opacity="1" transform="matrix(1,0,0,1,27.91900062561035,1.7710000276565552)"><path fill="rgb(62,54,46)" fill-opacity="1" d=" M6.072000026702881,1.5210000276565552 C6.072000026702881,1.5210000276565552 -6.072000026702881,1.5210000276565552 -6.072000026702881,1.5210000276565552 C-6.072000026702881,1.5210000276565552 -6.072000026702881,-1.5210000276565552 -6.072000026702881,-1.5210000276565552 C-6.072000026702881,-1.5210000276565552 6.072000026702881,-1.5210000276565552 6.072000026702881,-1.5210000276565552 C6.072000026702881,-1.5210000276565552 6.072000026702881,1.5210000276565552 6.072000026702881,1.5210000276565552z"></path></g></g><g transform="matrix(1,0,0,1,9.524999618530273,7.944999694824219)" opacity="1" style="display: block;"><g opacity="1" transform="matrix(1,0,0,1,8.833999633789062,14.604999542236328)"><path fill="rgb(62,54,46)" fill-opacity="1" d=" M1.6890000104904175,-0.013000000268220901 C1.6890000104904175,-0.013000000268220901 8.583999633789062,6.960000038146973 8.583999633789062,6.960000038146973 C8.583999633789062,6.960000038146973 6.456999778747559,9.112000465393066 6.456999778747559,9.112000465393066 C6.456999778747559,9.112000465393066 -0.43799999356269836,2.1389999389648438 -0.43799999356269836,2.1389999389648438 C-0.43799999356269836,2.1389999389648438 -5.574999809265137,7.333000183105469 -5.574999809265137,7.333000183105469 C-5.574999809265137,7.333000183105469 -5.574999809265137,9.128999710083008 -5.574999809265137,9.128999710083008 C-5.574999809265137,9.128999710083008 -8.583999633789062,9.128999710083008 -8.583999633789062,9.128999710083008 C-8.583999633789062,9.128999710083008 -8.583999633789062,-9.128999710083008 -8.583999633789062,-9.128999710083008 C-8.583999633789062,-9.128999710083008 -5.574999809265137,-9.128999710083008 -5.574999809265137,-9.128999710083008 C-5.574999809265137,-9.128999710083008 -5.574999809265137,3.0299999713897705 -5.574999809265137,3.0299999713897705 C-5.574999809265137,3.0299999713897705 6.447999954223633,-9.128999710083008 6.447999954223633,-9.128999710083008 C6.447999954223633,-9.128999710083008 8.574999809265137,-6.9770002365112305 8.574999809265137,-6.9770002365112305 C8.574999809265137,-6.9770002365112305 1.6890000104904175,-0.013000000268220901 1.6890000104904175,-0.013000000268220901z"></path></g></g></g></svg>