<svg xmlns="http://www.w3.org/2000/svg" xmlns:xlink="http://www.w3.org/1999/xlink" viewBox="0 0 34 34" width="34" height="34" class="lottie-animation" preserveAspectRatio="xMidYMid meet" style="width: 100%; height: 100%; transform: translate3d(0px, 0px, 0px); content-visibility: visible;"><defs><clipPath id="__lottie_element_4"><rect width="34" height="34" x="0" y="0"></rect></clipPath></defs><g clip-path="url(#__lottie_element_4)"><g transform="matrix(1,0,0,1,1,12.241000175476074)" opacity="1" style="display: block;"><g opacity="1" transform="matrix(1,0,0,1,16,7.568999767303467)"><path fill="rgb(0,0,0)" fill-opacity="1" d=" M-6.729000091552734,-1.6890000104904175 C-6.729000091552734,-1.6890000104904175 5.736999988555908,-1.6890000104904175 5.736999988555908,-1.6890000104904175 C5.736999988555908,-1.6890000104904175 11.368000030517578,0.1889999955892563 11.368000030517578,0.1889999955892563 C11.368000030517578,0.1889999955892563 15,0.1889999955892563 15,0.1889999955892563 C15.413999557495117,0.1889999955892563 15.75,0.5249999761581421 15.75,0.9390000104904175 C15.75,1.3530000448226929 15.413999557495117,1.6890000104904175 15,1.6890000104904175 C15,1.6890000104904175 11.12399959564209,1.6890000104904175 11.12399959564209,1.6890000104904175 C11.12399959564209,1.6890000104904175 5.49399995803833,-0.1889999955892563 5.49399995803833,-0.1889999955892563 C5.49399995803833,-0.1889999955892563 -6.440000057220459,-0.1889999955892563 -6.440000057220459,-0.1889999955892563 C-6.440000057220459,-0.1889999955892563 -11.131999969482422,1.6890000104904175 -11.131999969482422,1.6890000104904175 C-11.131999969482422,1.6890000104904175 -15,1.6890000104904175 -15,1.6890000104904175 C-15.413999557495117,1.6890000104904175 -15.75,1.3530000448226929 -15.75,0.9390000104904175 C-15.75,0.5249999761581421 -15.413999557495117,0.1889999955892563 -15,0.1889999955892563 C-15,0.1889999955892563 -11.420999526977539,0.1889999955892563 -11.420999526977539,0.1889999955892563 C-11.420999526977539,0.1889999955892563 -6.729000091552734,-1.6890000104904175 -6.729000091552734,-1.6890000104904175z"></path></g></g><g transform="matrix(1,0,0,1,1,6.590999603271484)" opacity="1" style="display: block;"><g opacity="1" transform="matrix(1,0,0,1,16,7.568999767303467)"><path fill="rgb(0,0,0)" fill-opacity="1" d=" M-6.729000091552734,-1.6890000104904175 C-6.729000091552734,-1.6890000104904175 5.736999988555908,-1.6890000104904175 5.736999988555908,-1.6890000104904175 C5.736999988555908,-1.6890000104904175 11.368000030517578,0.1889999955892563 11.368000030517578,0.1889999955892563 C11.368000030517578,0.1889999955892563 15,0.1889999955892563 15,0.1889999955892563 C15.413999557495117,0.1889999955892563 15.75,0.5249999761581421 15.75,0.9390000104904175 C15.75,1.3530000448226929 15.413999557495117,1.6890000104904175 15,1.6890000104904175 C15,1.6890000104904175 11.12399959564209,1.6890000104904175 11.12399959564209,1.6890000104904175 C11.12399959564209,1.6890000104904175 5.49399995803833,-0.1889999955892563 5.49399995803833,-0.1889999955892563 C5.49399995803833,-0.1889999955892563 -6.440000057220459,-0.1889999955892563 -6.440000057220459,-0.1889999955892563 C-6.440000057220459,-0.1889999955892563 -11.131999969482422,1.6890000104904175 -11.131999969482422,1.6890000104904175 C-11.131999969482422,1.6890000104904175 -15,1.6890000104904175 -15,1.6890000104904175 C-15.413999557495117,1.6890000104904175 -15.75,1.3530000448226929 -15.75,0.9390000104904175 C-15.75,0.5249999761581421 -15.413999557495117,0.1889999955892563 -15,0.1889999955892563 C-15,0.1889999955892563 -11.420999526977539,0.1889999955892563 -11.420999526977539,0.1889999955892563 C-11.420999526977539,0.1889999955892563 -6.729000091552734,-1.6890000104904175 -6.729000091552734,-1.6890000104904175z"></path></g></g></g></svg>