<svg xmlns="http://www.w3.org/2000/svg" xmlns:xlink="http://www.w3.org/1999/xlink" viewBox="0 0 32 32" width="32" height="32" class="lottie-animation" preserveAspectRatio="xMidYMid meet" style="width: 100%; height: 100%; transform: translate3d(0px, 0px, 0px); content-visibility: visible;"><defs><clipPath id="__lottie_element_12"><rect width="32" height="32" x="0" y="0"></rect></clipPath><g id="__lottie_element_15"><g style="display: none;" transform="matrix(0.5,0,0,0.5,16.666000366210938,14.89782428741455)" opacity="1"><g opacity="1" transform="matrix(1,0,0,1,-0.5,0.5299999713897705)"><path fill="rgb(255,188,131)" fill-opacity="1" d=" M20.41699981689453,-26.030000686645508 C20.41699981689453,-26.030000686645508 20.360774993896484,6.525819778442383 20.360774993896484,6.525819778442383 C20.360774993896484,6.525819778442383 24.057401657104492,7.695942401885986 24.057401657104492,7.695942401885986 C24.057401657104492,7.695942401885986 23.29775047302246,28.212583541870117 23.29775047302246,28.212583541870117 C23.29775047302246,28.212583541870117 -23.5,28.280000686645508 -23.5,28.280000686645508 C-23.5,28.280000686645508 -23.5,-28.280000686645508 -23.5,-28.280000686645508 C-23.5,-28.280000686645508 20.41699981689453,-26.030000686645508 20.41699981689453,-26.030000686645508z"></path></g></g></g><mask id="__lottie_element_15_1" mask-type="alpha"><use xlink:href="#__lottie_element_15"></use></mask><g id="__lottie_element_21"><g style="display: block;" transform="matrix(0.5,0,0,0.5,16.666000366210938,15.25)" opacity="1"><g opacity="1" transform="matrix(1,0,0,1,-0.5,0.5299999713897705)"><path fill="rgb(255,188,131)" fill-opacity="1" d=" M19.163681030273438,-32.45168685913086 C19.163681030273438,-32.45168685913086 24.573509216308594,-1.917407751083374 24.573509216308594,-1.917407751083374 C24.573509216308594,-1.917407751083374 20.53131103515625,0.9225805401802063 20.53131103515625,0.9225805401802063 C20.53131103515625,0.9225805401802063 23.5,28.280000686645508 23.5,28.280000686645508 C23.5,28.280000686645508 -23.5,28.280000686645508 -23.5,28.280000686645508 C-23.5,28.280000686645508 -23.5,-28.280000686645508 -23.5,-28.280000686645508 C-23.5,-28.280000686645508 19.163681030273438,-32.45168685913086 19.163681030273438,-32.45168685913086z"></path></g></g></g><mask id="__lottie_element_21_1" mask-type="alpha"><use xlink:href="#__lottie_element_21"></use></mask><g id="__lottie_element_27"><g transform="matrix(0.5,0,0,0.5,16.666000366210938,15.25)" opacity="1" style="display: block;"><g opacity="1" transform="matrix(1,0,0,1,-0.5,0.5299999713897705)"><path fill="rgb(255,188,131)" fill-opacity="1" d=" M20.41699981689453,-26.030000686645508 C20.41699981689453,-26.030000686645508 20.16699981689453,6.303999900817871 20.16699981689453,6.303999900817871 C20.16699981689453,6.303999900817871 24.41699981689453,7.88700008392334 24.41699981689453,7.88700008392334 C24.41699981689453,7.88700008392334 23.5,28.280000686645508 23.5,28.280000686645508 C23.5,28.280000686645508 -23.5,28.280000686645508 -23.5,28.280000686645508 C-23.5,28.280000686645508 -23.5,-28.280000686645508 -23.5,-28.280000686645508 C-23.5,-28.280000686645508 20.41699981689453,-26.030000686645508 20.41699981689453,-26.030000686645508z"></path></g></g></g><mask id="__lottie_element_27_1" mask-type="alpha"><use xlink:href="#__lottie_element_27"></use></mask></defs><g clip-path="url(#__lottie_element_12)"><g mask="url(#__lottie_element_27_1)" style="display: none;"><g transform="matrix(1,0,0,1,-7.337778091430664,6.804499626159668)" opacity="1"><g opacity="1" transform="matrix(1,0,0,1,27.503000259399414,8.611000061035156)"><path stroke-linecap="butt" stroke-linejoin="miter" fill-opacity="0" stroke-miterlimit="4" stroke="rgb(62,54,46)" stroke-opacity="1" stroke-width="1.5" d=" M-25.985000610351562,1.4469997882843018 C-25.985000610351562,1.4469997882843018 -23.170000076293945,1.4469997882843018 -23.170000076293945,1.4469997882843018 C-22.83300018310547,1.4469997882843018 -22.479000091552734,1.458999752998352 -22.336999893188477,1.432999849319458 C-22.336999893188477,1.432999849319458 -20.65399932861328,1.4439998865127563 -20.65399932861328,1.4439998865127563 C-20.08300018310547,1.4379998445510864 -19.625,1.4379998445510864 -18.969999313354492,1.461999773979187 C-18.969999313354492,1.461999773979187 -13.90400505065918,1.486999750137329 -13.90400505065918,1.486999750137329 C-13.125004768371582,1.4799997806549072 -12.300005912780762,1.5219992399215698 -11.99400520324707,1.4559987783432007 C-11.99400520324707,1.4559987783432007 -10.41200065612793,1.4459930658340454 -10.41200065612793,1.4459930658340454 C-9.685001373291016,0.7509940266609192 -9.144000053405762,0.7929924130439758 -8.556000709533691,1.264993667602539 C-8.556000709533691,1.264993667602539 -5.23199987411499,3.9100000858306885 -5.23199987411499,3.9100000858306885 C-4.561001300811768,4.460000991821289 -3.8939993381500244,4.460000991821289 -3.4110000133514404,3.878000020980835 C-3.01900053024292,3.000999927520752 -0.2729998826980591,-3.105999708175659 -0.2729998826980591,-3.105999708175659 C-0.018999885767698288,-4.0920000076293945 1.376000165939331,-4.110999584197998 1.6560001373291016,-3.130999803543091 C1.6560001373291016,-3.130999803543091 5.169000148773193,3.8680002689361572 5.169000148773193,3.8680002689361572 C5.60599946975708,4.668000221252441 6.749000072479248,4.765000343322754 6.988999843597412,3.8360002040863037 C7.229000091552734,2.9080002307891846 10.15999984741211,-3.063999891281128 10.15999984741211,-3.063999891281128 C10.414999961853027,-4.049999713897705 11.809000015258789,-4.068999767303467 12.09000015258789,-3.0889999866485596 C12.09000015258789,-3.0889999866485596 15.609999656677246,3.9100000858306885 15.609999656677246,3.9100000858306885 C15.85099983215332,4.751999855041504 17.19099998474121,4.807000160217285 17.43000030517578,3.878000020980835 C17.670000076293945,2.950000047683716 20.569000244140625,-3.063999891281128 20.569000244140625,-3.063999891281128 C20.822999954223633,-4.049999713897705 22.218000411987305,-4.068999767303467 22.499000549316406,-3.0889999866485596 C22.499000549316406,-3.0889999866485596 26.01799964904785,3.9100000858306885 26.01799964904785,3.9100000858306885"></path></g></g></g><g mask="url(#__lottie_element_21_1)" style="display: block;"><g transform="matrix(1,0,0,1,-2.9136791229248047,6.804499626159668)" opacity="1"><g opacity="1" transform="matrix(1,0,0,1,27.503000259399414,8.611000061035156)"><path stroke-linecap="butt" stroke-linejoin="miter" fill-opacity="0" stroke-miterlimit="4" stroke="rgb(62,54,46)" stroke-opacity="1" stroke-width="1.5" d=" M-26.01044273376465,1.4528082609176636 C-26.01044273376465,1.4528082609176636 -23.19544219970703,1.4406208992004395 -23.19544219970703,1.4406208992004395 C-22.706045150756836,1.435397744178772 -22.3648624420166,1.439803957939148 -22.00030517578125,1.438437819480896 C-22.00030517578125,1.438437819480896 -20.730079650878906,1.4494377374649048 -20.730079650878906,1.4494377374649048 C-20.030946731567383,1.4562546014785767 -19.58587646484375,1.4444377422332764 -18.96210289001465,1.4556208848953247 C-18.96210289001465,1.4556208848953247 -15.639219284057617,2.510955810546875 -15.639219284057617,2.510955810546875 C-14.985636711120605,2.779076099395752 -14.081246376037598,2.780068874359131 -13.823219299316406,2.2299559116363525 C-13.823219299316406,2.2299559116363525 -10.653888702392578,-1.1077497005462646 -10.653888702392578,-1.1077497005462646 C-10.10827922821045,-1.8659528493881226 -9.100058555603027,-2.043945789337158 -8.724888801574707,-1.1327496767044067 C-8.724888801574707,-1.1327496767044067 -5.22892427444458,3.940753936767578 -5.22892427444458,3.940753936767578 C-4.793676853179932,4.7298784255981445 -3.773188829421997,4.776695251464844 -3.407924175262451,3.9087538719177246 C-3.0449185371398926,2.960610866546631 -0.2636251747608185,-3.0230000019073486 -0.2636251747608185,-3.0230000019073486 C-0.009625176899135113,-4.008999824523926 1.3853747844696045,-4.0279998779296875 1.6653748750686646,-3.0480000972747803 C1.6653748750686646,-3.0480000972747803 5.180075645446777,3.940753936767578 5.180075645446777,3.940753936767578 C5.421075820922852,4.782753944396973 6.76007604598999,4.837753772735596 7.000075817108154,3.9087538719177246 C7.240075588226318,2.9807538986206055 10.14437484741211,-3.0230000019073486 10.14437484741211,-3.0230000019073486 C10.399374961853027,-4.008999824523926 11.793375015258789,-4.0279998779296875 12.07437515258789,-3.0480000972747803 C12.07437515258789,-3.0480000972747803 15.588075637817383,3.940753936767578 15.588075637817383,3.940753936767578 C15.829075813293457,4.782753944396973 17.16907501220703,4.837753772735596 17.4080753326416,3.9087538719177246 C17.648075103759766,2.9807538986206055 20.553375244140625,-3.0230000019073486 20.553375244140625,-3.0230000019073486 C20.807374954223633,-4.008999824523926 22.201374053955078,-4.0279998779296875 22.48237419128418,-3.0480000972747803 C22.48237419128418,-3.0480000972747803 25.996076583862305,3.940753936767578 25.996076583862305,3.940753936767578"></path></g></g></g><g mask="url(#__lottie_element_15_1)" style="display: none;"><g transform="matrix(1,0,0,1,2.9102630615234375,6.452323913574219)" opacity="1"><g opacity="1" transform="matrix(1,0,0,1,27.503000259399414,8.611000061035156)"><path stroke-linecap="butt" stroke-linejoin="miter" fill-opacity="0" stroke-miterlimit="4" stroke="rgb(62,54,46)" stroke-opacity="1" stroke-width="1.5" d=" M-26.323226928710938,1.8291823863983154 C-26.323226928710938,1.8291823863983154 -23.598159790039062,1.8259464502334595 -23.598159790039062,1.8259464502334595 C-23.261159896850586,1.8259464502334595 -22.875194549560547,1.8077553510665894 -22.547283172607422,1.8155869245529175 C-22.468542098999023,1.8190925121307373 -20.920429229736328,1.7872835397720337 -20.82887840270996,1.7852610349655151 C-20.276046752929688,1.3070595264434814 -19.459720611572266,1.005833387374878 -18.812673568725586,1.4637655019760132 C-18.659639358520508,1.468349814414978 -15.455516815185547,4.180294036865234 -15.261762619018555,4.176788330078125 C-14.541121482849121,4.703630447387695 -13.674030303955078,4.322998046875 -13.260051727294922,3.767852783203125 C-13.133309364318848,3.7698752880096436 -10.234299659729004,-2.10453200340271 -10.140591621398926,-2.1041274070739746 C-9.717253684997559,-2.9844634532928467 -8.390658378601074,-2.9732162952423096 -8.093478202819824,-2.126296043395996 C-8.093478202819824,-2.126296043395996 -5.0174031257629395,3.967180013656616 -5.0174031257629395,3.967180013656616 C-4.782144546508789,4.694572448730469 -3.618157148361206,4.742156505584717 -3.398651599884033,3.935853958129883 C-3.159651756286621,3.0078539848327637 -0.2705730199813843,-3.4741604328155518 -0.2705730199813843,-3.4741604328155518 C-0.016573015600442886,-4.460160255432129 1.3784270286560059,-4.479160308837891 1.6584270000457764,-3.4991605281829834 C1.6584270000457764,-3.4991605281829834 5.188000202178955,4.243182182312012 5.188000202178955,4.243182182312012 C5.428999900817871,5.085182189941406 6.76800012588501,5.140182018280029 7.007999897003174,4.211182117462158 C7.248000144958496,3.28318190574646 10.137561798095703,-3.4741604328155518 10.137561798095703,-3.4741604328155518 C10.392561912536621,-4.460160255432129 11.786426544189453,-4.479160308837891 12.067426681518555,-3.4991605281829834 C12.067426681518555,-3.4991605281829834 15.595999717712402,4.243182182312012 15.595999717712402,4.243182182312012 C15.836999893188477,5.085182189941406 17.176864624023438,5.140182018280029 17.415864944458008,4.211182117462158 C17.655864715576172,3.28318190574646 20.54642677307129,-3.4741604328155518 20.54642677307129,-3.4741604328155518 C20.800426483154297,-4.460160255432129 22.194561004638672,-4.479160308837891 22.475561141967773,-3.4991605281829834 C22.475561141967773,-3.4991605281829834 26.003864288330078,4.243182182312012 26.003864288330078,4.243182182312012"></path></g></g></g></g></svg>